# AST/ASF file generated using VICON BodyLanguage
# -----------------------------------------------
:version 1.10
:name VICON
:units
  mass 1.0
  length 0.45
  angle deg
:documentation
   .ast/.asf automatically generated from VICON data using
   VICON BodyBuilder and BodyLanguage model FoxedUp or BRILLIANT.MOD
:root
   order TX TY TZ RX RY RZ
   axis XYZ
   position 0 0 0  
   orientation 0 0 0 
:bonedata
  begin
     id 1 
     name lhipjoint
     direction 0.588788 -0.725889 0.355548 
     length 2.37778 
     axis 0 0 0  XYZ
  end
  begin
     id 2 
     name lfemur
     direction 0.34202 -0.939693 0  
     length 6.86393  
     axis 0 0 20  XYZ
    dof rx ry rz
    limits (-160.0 20.0)
           (-70.0 70.0)
           (-60.0 70.0)
  end
  begin
     id 3 
     name ltibia
     direction 0.34202 -0.939693 0   
     length 7.32851   
     axis 0 0 20   XYZ
    dof rx
    limits (-10.0 170.0)
  end
  begin
     id 4 
     name lfoot
     direction 0.0626533 -0.172138 0.983078   
     length 1.98929   
     axis -90 7.62852e-016 20   XYZ
    dof rx rz
    limits (-45.0 90.0)
           (-70.0 20.0)
  end
  begin
     id 5 
     name ltoes
     direction 1.53647e-011 -4.21734e-011 1   
     length 1.00479   
     axis -90 7.62852e-016 20   XYZ
    dof rx
    limits (-90.0 20.0)
  end
  begin
     id 6 
     name rhipjoint
     direction -0.59141 -0.724168 0.354705   
     length 2.38343  
     axis 0 0 0  XYZ 
  end
  begin
     id 7 
     name rfemur
     direction -0.34202 -0.939693 0   
     length 6.95589   
     axis 0 0 -20   XYZ
    dof rx ry rz
    limits (-160.0 20.0)
           (-70.0 70.0)
           (-70.0 60.0)
  end
  begin
     id 8 
     name rtibia
     direction -0.34202 -0.939693 0   
     length 7.32327   
     axis 0 0 -20   XYZ
    dof rx
    limits (-10.0 170.0)
 end
 begin
     id 9 
     name rfoot
     direction -0.0660461 -0.18146 0.981178   
     length 1.85272  
     axis -90 -7.62852e-016 -20   XYZ
    dof rx rz
    limits (-45.0 90.0)
           (-20.0 70.0)
  end
  begin
     id 10 
     name rtoes
     direction -1.53586e-011 -4.21988e-011 1   
     length 0.93746   
     axis -90 -7.62852e-016 -20   XYZ
    dof rx
    limits (-90.0 20.0)
  end
  begin
     id 11 
     name lowerback
     direction -0.0107982 0.991059 0.13299   
     length 1.98691   
     axis 0 0 0   XYZ
    dof rx ry rz
    limits (-20.0 45.0)
           (-30.0 30.0)
           (-30.0 30.0)
  end
  begin
     id 12 
     name upperback
     direction 0.0076296 0.999916 0.0104576   
     length 1.99501   
     axis 0 0 0   XYZ
    dof rx ry rz
    limits (-20.0 45.0)
           (-30.0 30.0)
           (-30.0 30.0)
  end
  begin
     id 13 
     name thorax
     direction 0.01176 0.998615 -0.0512909   
     length 2.03144   
     axis 0 0 0   XYZ
    dof rx ry rz
    limits (-20.0 45.0)
           (-30.0 30.0)
           (-30.0 30.0)
  end
  begin
     id 14 
     name lowerneck
     direction -0.0171909 0.999644 0.0204011   
     length 1.71818   
     axis 0 0 0   XYZ
    dof rx ry rz
    limits (-20.0 45.0)
           (-30.0 30.0)
           (-30.0 30.0)
  end
  begin
     id 15 
     name upperneck
     direction 0.0250902 0.997482 -0.0663316   
     length 1.66199   
     axis 0 0 0   XYZ
    dof rx ry rz
    limits (-20.0 45.0)
           (-30.0 30.0)
           (-30.0 30.0)
  end
  begin
     id 16
     name head
     direction 0.00881535 0.99956 -0.0283365  
     length 1.81545  
     axis 0 0 0   XYZ
    dof rx ry rz
    limits (-20.0 45.0)
           (-30.0 30.0)
           (-30.0 30.0)
  end
  begin
     id 17 
     name lclavicle
     direction 0.840411 0.486876 -0.238035  
     length 3.30409  
     axis 0 0 0   XYZ
    dof ry rz
    limits (-20.0 10.0)
           (0.0 20.0)
  end
  begin
     id 18 
     name lhumerus
     direction 1 -4.48977e-011 -5.16239e-027   
     length 4.62672   
     axis 180 -30 -90   XYZ
    dof rx ry rz
    limits (-60.0 90.0)
           (-90.0 90.0)
           (-90.0 90.0)
  end
  begin
     id 19
     name lradius
     direction 1 -4.48977e-011 -8.71171e-027   
     length 3.11018   
     axis 180 -30 -90   XYZ
    dof rx
    limits (-10.0 170.0)
  end
  begin
     id 20
     name lwrist
     direction 1 -4.48912e-011 -1.03764e-026   
     length 1.55509   
     axis 9.09556e-015 90 90   XYZ
    dof ry
    limits (-180.0 0.0)
 end
  begin
     id 21 
     name lhand
     direction 1 -4.49072e-011 -2.07528e-026   
     length 0.743834   
     axis 1.3242e-014 90 90   XYZ
    dof rx rz
    limits (-90.0 90.0)
           (-45.0 45.0)
  end
  begin
     id 22 
     name lfingers
     direction 1 -4.48909e-011 -4.15056e-026   
     length 0.599698   
     axis 2.64841e-014 90 90   XYZ
    dof rx
    limits (0.0 90.0)
  end
  begin
     id 23
     name lthumb
     direction 0.707107 -6.35013e-011 0.707107   
     length 0.86105   
     axis -90 45 2.85299e-015   XYZ
    dof rx rz
    limits (-45.0 45.0)
           (-45.0 45.0)
  end
  begin
     id 24 
     name rclavicle
     direction -0.835208 0.500237 -0.228452   
     length 3.2716  
     axis 0 0 0   XYZ 
    dof ry rz
    limits (-10.0 20.0)
           (-20.0 0.0)
  end
  begin
     id 25 
     name rhumerus
     direction -1 -4.48978e-011 -5.1953e-028  
     length 4.55919   
     axis 180 30 90   XYZ
    dof rx ry rz
    limits (-90.0 60.0)
           (-90.0 90.0)
           (-90.0 90.0)
  end
  begin
     id 26 
     name rradius
     direction -1 -4.48961e-011 -5.99546e-027   
     length 3.22748   
     axis 180 30 90   XYZ
    dof rx
    limits (-10.0 170.0)
  end
  begin
     id 27 
     name rwrist
     direction -1 -4.48986e-011 -1.03764e-026   
     length 1.61374   
     axis 9.09556e-015 -90 -90   XYZ
    dof ry
    limits (-180.0 0.0)
  end
  begin
     id 28
     name rhand
     direction -1 -4.4899e-011 -2.07528e-026   
     length 0.700882   
     axis 1.3242e-014 -90 -90   XYZ
    dof rx rz
    limits (-90.0 90.0)
           (-45.0 45.0)
  end
  begin
     id 29
     name rfingers
     direction -1 -4.48991e-011 -4.15056e-026   
     length 0.565069   
     axis 2.64841e-014 -90 -90   XYZ
    dof rx
    limits (0.0 90.0)
  end
  begin
     id 30
     name rthumb
     direction -0.707107 -6.34804e-011 0.707107   
     length 0.811329   
     axis -90 -45 -2.85299e-015   XYZ
    dof rx rz
    limits (-45.0 45.0)
           (-45.0 45.0)
  end
:hierarchy
  begin
    root lhipjoint rhipjoint lowerback
    lhipjoint lfemur
    lfemur ltibia
    ltibia lfoot
    lfoot ltoes
    rhipjoint rfemur
    rfemur rtibia
    rtibia rfoot
    rfoot rtoes
    lowerback upperback
    upperback thorax
    thorax lowerneck lclavicle rclavicle
    lowerneck upperneck
    upperneck head
    lclavicle lhumerus
    lhumerus lradius
    lradius lwrist
    lwrist lhand lthumb
    lhand lfingers
    rclavicle rhumerus
    rhumerus rradius
    rradius rwrist
    rwrist rhand rthumb
    rhand rfingers
  end

#!OML:ASF F:\VICON\USERDATA\INSTALL\SteveWalk\SteveWalk.ASF
:FULLY-SPECIFIED
:DEGREES
867
root 4.63813 16.3917 -16.2607 197.174 -9.22134 -180.698
lowerback -13.6023 -1.16422 -2.29503
upperback -2.78642 -1.62783 1.9479
thorax 4.80014 -0.974012 3.05045
lowerneck -4.61838 -0.078024 0.504531
upperneck 24.079 -3.26824 4.7082
head 8.28596 -1.81426 1.10403
rclavicle -7.15625e-015 1.35174e-014
rhumerus -72.4369 -46.9036 -19.0618
rradius 15.2145
rwrist 18.5201
rhand -14.7717 -37.316
rfingers 7.12502
rthumb 11.385 -786.987
lclavicle -7.15625e-015 1.35174e-014
lhumerus -18.1041 -13.5262 83.1982
lradius 37.8308
lwrist 1.57233
lhand -21.3779 -17.0691
lfingers 7.12502
lthumb 5.00949 12.8517
rfemur -44.5993 -3.68411 21.4182
rtibia 20.5303
rfoot -5.3763 2.95912
rtoes -22.1049
lfemur -1.21668 3.10685 -19.983
ltibia 20.2391
lfoot -16.8073 -4.75508
ltoes -29.2388
868
root 4.63089 16.3981 -16.4611 197.35 -9.14326 -181.056
lowerback -13.7156 -1.1835 -2.34177
upperback -2.92991 -1.65651 1.88541
thorax 4.71192 -0.99203 3.00497
lowerneck -4.55991 -0.0900321 0.500484
upperneck 24.29 -3.29934 4.54923
head 8.34514 -1.85551 1.04753
rclavicle -2.2413e-014 -1.59028e-015
rhumerus -71.2994 -46.2992 -20.7184
rradius 15.2554
rwrist 17.7225
rhand -14.9198 -37.263
rfingers 7.12502
rthumb 11.2421 -786.942
lclavicle -2.2413e-014 -1.59028e-015
lhumerus -18.9558 -13.0854 83.5612
lradius 38.0084
lwrist 1.51105
lhand -21.4699 -17.3944
lfingers 7.12502
lthumb 4.92065 12.5284
rfemur -44.8005 -3.62876 20.8995
rtibia 21.6435
rfoot -4.63861 3.29687
rtoes -23.6932
lfemur -1.17073 2.52091 -20.2145
ltibia 21.2484
lfoot -15.9792 -4.8136
ltoes -31.5052
869
root 4.65618 16.3945 -16.6615 197.344 -8.42564 -180.919
lowerback -13.6852 -0.97462 -2.42862
upperback -3.01037 -1.38804 2.01399
thorax 4.59587 -0.864379 3.23863
lowerneck -4.44421 -0.0370427 0.715592
upperneck 24.1267 -3.0809 4.03283
head 8.252 -1.77272 0.85959
rclavicle 3.96078e-014 -1.07344e-014
rhumerus -71.2538 -46.3975 -20.629
rradius 15.1102
rwrist 18.3442
rhand -14.934 -37.6025
rfingers 7.12502
rthumb 11.2284 -787.282
lclavicle 3.96078e-014 -1.07344e-014
lhumerus -19.6553 -12.4829 83.927
lradius 37.8607
lwrist 1.3223
lhand -21.4691 -17.9635
lfingers 7.12502
lthumb 4.92136 11.9594
rfemur -44.9132 -2.13021 20.4417
rtibia 22.7051
rfoot -4.04304 2.68982
rtoes -26.2505
lfemur -1.23615 2.56355 -20.0048
ltibia 22.536
lfoot -15.0052 -4.76142
ltoes -34.0323
870
root 4.65492 16.4039 -16.8681 197.148 -8.3786 -180.231
lowerback -13.5914 -0.808747 -1.43543
upperback -3.01723 -1.33227 2.23356
thorax 4.51962 -0.830359 2.91636
lowerneck -4.39166 -0.0456907 0.681419
upperneck 23.9285 -2.99862 3.85821
head 8.17026 -1.74399 0.816599
rclavicle -1.00386e-014 1.59028e-014
rhumerus -72.1347 -47.1713 -19.0647
rradius 14.7071
rwrist 20.2567
rhand -15.0133 -37.4316
rfingers 7.12502
rthumb 11.152 -787.115
lclavicle -1.00386e-014 1.59028e-014
lhumerus -20.3519 -11.8931 84.2517
lradius 37.7874
lwrist 0.792514
lhand -21.6219 -18.0227
lfingers 7.12502
lthumb 4.77387 11.9035
rfemur -44.752 -1.7352 21.0165
rtibia 23.834
rfoot -3.48539 3.05721
rtoes -23.4434
lfemur -1.42961 2.44571 -19.0914
ltibia 24.2728
lfoot -13.8049 -5.38039
ltoes -34.4055
871
root 4.61143 16.4256 -17.0681 197.198 -9.1058 -180.133
lowerback -13.6514 -0.924901 -0.313004
upperback -3.08325 -1.65419 2.21592
thorax 4.47487 -0.981059 2.20413
lowerneck -4.46597 -0.0222669 0.700266
upperneck 23.8158 -2.8782 3.6432
head 8.13932 -1.69338 0.752913
rclavicle -1.04362e-014 -5.56597e-015
rhumerus -71.8924 -47.4383 -19.2441
rradius 14.622
rwrist 20.9388
rhand -14.9502 -37.6855
rfingers 7.12502
rthumb 11.2128 -787.366
lclavicle -1.04362e-014 -5.56597e-015
lhumerus -20.984 -11.2435 84.5128
lradius 37.724
lwrist 0.43216
lhand -21.772 -17.9392
lfingers 7.12502
lthumb 4.6289 11.9902
rfemur -44.6741 -3.22271 21.601
rtibia 25.0228
rfoot -3.25398 4.50184
rtoes -18.6784
lfemur -2.09242 1.82104 -18.7344
ltibia 26.5001
lfoot -12.1103 -6.40361
ltoes -33.1997
872
root 4.60338 16.4342 -17.2644 196.95 -9.35292 -179.683
lowerback -13.4719 -0.926007 0.5516
upperback -3.06894 -1.78773 2.36448
thorax 4.37862 -1.04079 1.85064
lowerneck -4.65566 0.0350606 0.761211
upperneck 23.9002 -2.7622 3.46699
head 8.19722 -1.64185 0.692023
rclavicle 3.02153e-014 -2.54444e-014
rhumerus -71.3404 -47.6193 -19.8419
rradius 14.5814
rwrist 21.2858
rhand -15.0914 -37.9412
rfingers 7.12502
rthumb 11.0766 -787.629
lclavicle 3.02153e-014 -2.54444e-014
lhumerus -21.6762 -10.5313 84.7853
lradius 37.7684
lwrist 0.030057
lhand -21.976 -17.6325
lfingers 7.12502
lthumb 4.43197 12.3011
rfemur -44.3563 -3.31138 22.142
rtibia 26.2411
rfoot -3.65842 4.35849
rtoes -18.9399
lfemur -2.80903 1.88404 -18.0085
ltibia 29.1116
lfoot -10.1457 -7.49266
ltoes -32.3433
873
root 4.59608 16.4318 -17.4585 196.896 -9.37662 -179.623
lowerback -13.4408 -0.894897 1.02867
upperback -3.10463 -1.81878 2.37155
thorax 4.31187 -1.05447 1.58397
lowerneck -4.68043 0.0345861 0.6752
upperneck 23.9257 -2.74571 3.4314
head 8.20995 -1.64462 0.695847
rclavicle -4.06515e-014 2.62396e-014
rhumerus -71.2477 -48.0487 -19.7571
rradius 14.4226
rwrist 22.0418
rhand -15.2238 -37.6207
rfingers 7.12502
rthumb 10.9489 -787.315
lclavicle -4.06515e-014 2.62396e-014
lhumerus -22.3535 -9.75772 85.0496
lradius 37.606
lwrist -0.533042
lhand -21.8748 -17.5936
lfingers 7.12502
lthumb 4.52971 12.338
rfemur -44.2194 -3.22166 22.2291
rtibia 27.5379
rfoot -4.57722 3.77501
rtoes -22.4916
lfemur -3.88219 2.04393 -17.8024
ltibia 31.9494
lfoot -7.54087 -8.52134
ltoes -31.4537
874
root 4.5951 16.4393 -17.6478 196.778 -9.28198 -179.486
lowerback -13.3552 -0.835388 1.39875
upperback -3.05914 -1.79539 2.45788
thorax 4.30481 -1.04007 1.47064
lowerneck -4.69245 0.0306414 0.494093
upperneck 23.8008 -2.68427 3.39088
head 8.16884 -1.62683 0.719862
rclavicle -2.27608e-014 -1.98785e-014
rhumerus -70.7094 -48.4816 -20.1824
rradius 14.3995
rwrist 22.3273
rhand -15.1478 -37.082
rfingers 7.12502
rthumb 11.0222 -786.773
lclavicle -2.27608e-014 -1.98785e-014
lhumerus -22.795 -8.91387 85.3231
lradius 37.1967
lwrist -1.04826
lhand -21.7406 -17.7463
lfingers 7.12502
lthumb 4.65922 12.1824
rfemur -43.9576 -2.77774 22.2878
rtibia 28.7544
rfoot -5.42161 3.65519
rtoes -22.5982
lfemur -5.23176 2.37013 -17.5214
ltibia 35.0057
lfoot -3.10146 -9.58235
ltoes -24.2351
875
root 4.60173 16.4533 -17.8401 196.667 -9.12685 -179.398
lowerback -13.2169 -0.781445 1.56858
upperback -3.04105 -1.74855 2.53585
thorax 4.24521 -1.01634 1.46669
lowerneck -5.04825 0.0852473 0.51121
upperneck 24.0167 -2.59384 3.2773
head 8.30387 -1.58351 0.683414
rclavicle 2.19657e-014 -2.06736e-014
rhumerus -70.2368 -48.9062 -20.5934
rradius 14.3661
rwrist 22.5925
rhand -14.8473 -36.9796
rfingers 7.12502
rthumb 11.3121 -786.654
lclavicle 2.19657e-014 -2.06736e-014
lhumerus -23.2268 -8.40382 85.5765
lradius 36.8419
lwrist -1.02888
lhand -21.4105 -17.7073
lfingers 7.12502
lthumb 4.97804 12.2142
rfemur -43.6762 -2.19806 22.2633
rtibia 29.9164
rfoot -6.26178 4.04541
rtoes -18.9382
lfemur -6.69198 2.7968 -17.2778
ltibia 38.0409
lfoot 1.71898 -9.74793
ltoes -13.85
876
root 4.60775 16.4637 -18.0285 196.662 -9.03718 -179.58
lowerback -13.0625 -0.772526 1.50775
upperback -3.11335 -1.72301 2.51464
thorax 4.08547 -1.00615 1.48637
lowerneck -5.02983 0.0926173 0.447813
upperneck 23.8988 -2.56437 3.3371
head 8.26099 -1.56521 0.717945
rclavicle -2.60905e-014 1.51076e-014
rhumerus -67.9241 -48.3473 -23.6502
rradius 14.5594
rwrist 20.9396
rhand -14.876 -37.1611
rfingers 7.12502
rthumb 11.2844 -786.838
lclavicle -2.60905e-014 1.51076e-014
lhumerus -23.739 -8.00925 85.8608
lradius 36.4717
lwrist -0.787266
lhand -20.7373 -17.3409
lfingers 7.12502
lthumb 5.62796 12.5643
rfemur -43.4812 -1.98813 22.0976
rtibia 30.9444
rfoot -7.12966 4.23386
rtoes -16.3213
lfemur -8.20924 2.88562 -17.34
ltibia 40.9506
lfoot 5.46358 -9.36408
ltoes -5.93276
877
root 4.6173 16.476 -18.2139 196.555 -8.98899 -179.773
lowerback -12.8136 -0.794762 1.35496
upperback -3.15561 -1.71626 2.46795
thorax 3.90748 -1.00261 1.52972
lowerneck -4.59406 0.0033475 0.316217
upperneck 23.3353 -2.64082 3.53358
head 7.99572 -1.59311 0.805916
rclavicle -1.63997e-015 -5.32743e-014
rhumerus -65.0609 -47.3046 -27.6599
rradius 14.8917
rwrist 18.4963
rhand -14.9944 -37.3001
rfingers 7.12502
rthumb 11.1701 -786.983
lclavicle -1.63997e-015 -5.32743e-014
lhumerus -24.3792 -7.46761 86.1074
lradius 36.2238
lwrist -0.882102
lhand -20.0696 -16.3804
lfingers 7.12502
lthumb 6.27261 13.5068
rfemur -43.1199 -1.72016 21.89
rtibia 31.8524
rfoot -7.95493 3.92187
rtoes -14.2606
lfemur -9.59027 2.83757 -17.3654
ltibia 43.7273
lfoot 8.89288 -9.32549
ltoes -1.40811
